# Blender 4.3.2
# www.blender.org
mtllib AcidBarrelPlague.mtl
o AcidBarrel1_AcidBarrel_0
v -0.925188 2.137503 0.000738
v -0.893285 2.105600 0.000727
v -0.854762 2.137381 0.354792
v -0.825288 2.105482 0.342572
v -0.893285 0.765673 0.000264
v -0.654207 2.137278 0.654945
v -0.825288 0.765555 0.342110
v -0.925188 0.733770 0.000253
v -0.854762 0.733648 0.354308
v -0.631648 2.105382 0.632375
v -0.354054 2.137208 0.855500
v -0.631648 0.765455 0.631912
v -0.654207 0.733544 0.654460
v -0.341845 2.105315 0.826015
v 0.000000 2.137184 0.925926
v -0.341845 0.765388 0.825552
v -0.354054 0.733475 0.855016
v 0.000000 2.105292 0.894012
v 0.354054 2.137208 0.855500
v 0.000000 0.765364 0.893549
v 0.000000 0.733450 0.925441
v 0.341845 2.105315 0.826015
v 0.654207 2.137278 0.654945
v 0.341845 0.765388 0.825552
v 0.354054 0.733475 0.855016
v 0.631648 2.105382 0.632375
v 0.854762 2.137381 0.354792
v 0.631648 0.765455 0.631912
v 0.654207 0.733544 0.654460
v 0.825288 2.105482 0.342572
v 0.925188 2.137503 0.000738
v 0.825288 0.765555 0.342110
v 0.854762 0.733648 0.354307
v 0.893285 2.105600 0.000727
v 0.854762 2.137626 -0.353316
v 0.893285 0.765673 0.000264
v 0.925188 0.733770 0.000253
v 0.825288 2.105718 -0.341118
v 0.654207 2.137729 -0.653469
v 0.825288 0.765791 -0.341581
v 0.854762 0.733892 -0.353801
v 0.631648 2.105819 -0.630921
v 0.354054 2.137799 -0.854024
v 0.631648 0.765891 -0.631384
v 0.654207 0.733996 -0.653953
v 0.341845 2.105885 -0.824561
v 0.000000 2.137823 -0.924450
v 0.341845 0.765958 -0.825023
v 0.354054 0.734065 -0.854509
v 0.000000 2.105909 -0.892558
v -0.354054 2.137799 -0.854024
v 0.000000 0.765981 -0.893021
v 0.000000 0.734089 -0.924935
v -0.341845 2.105885 -0.824561
v -0.654207 2.137729 -0.653469
v -0.341845 0.765958 -0.825023
v -0.354054 0.734065 -0.854509
v -0.631648 2.105819 -0.630921
v -0.854762 2.137626 -0.353316
v -0.631648 0.765891 -0.631384
v -0.654207 0.733996 -0.653953
v -0.825288 2.105718 -0.341118
v -0.925188 2.137503 0.000738
v -0.893285 2.105600 0.000727
v -0.825288 0.765791 -0.341581
v -0.854762 0.733892 -0.353801
v -0.893285 0.765673 0.000264
v -0.925188 0.733770 0.000253
v -0.341845 -0.000285 0.825288
v -0.631648 -0.000218 0.631648
v 0.000000 -0.000308 0.893285
v -0.825288 -0.000118 0.341845
v -0.893285 0.000000 0.000000
v -0.825288 0.000118 -0.341845
v -0.631648 0.000218 -0.631648
v -0.341845 0.000285 -0.825288
v -0.000000 0.000308 -0.893285
v 0.341845 0.000285 -0.825288
v 0.631648 0.000218 -0.631648
v 0.825288 0.000118 -0.341845
v 0.893285 -0.000000 -0.000000
v 0.825288 -0.000118 0.341845
v 0.631648 -0.000218 0.631648
v 0.341845 -0.000285 0.825288
v -0.925188 0.733770 0.000253
v -0.893285 0.701867 0.000242
v -0.854762 0.733648 0.354308
v -0.825288 0.701749 0.342088
v -0.893285 0.000000 0.000000
v -0.654207 0.733544 0.654460
v -0.825288 -0.000118 0.341845
v -0.631648 0.701649 0.631890
v -0.354054 0.733475 0.855016
v -0.631648 -0.000218 0.631648
v -0.341845 0.701582 0.825530
v 0.000000 0.733450 0.925441
v -0.341845 -0.000285 0.825288
v 0.000000 0.701558 0.893527
v 0.354054 0.733475 0.855016
v 0.000000 -0.000308 0.893285
v 0.341845 0.701582 0.825530
v 0.654207 0.733544 0.654460
v 0.341845 -0.000285 0.825288
v 0.631648 0.701649 0.631890
v 0.854762 0.733648 0.354307
v 0.631648 -0.000218 0.631648
v 0.825288 0.701749 0.342088
v 0.925188 0.733770 0.000253
v 0.825288 -0.000118 0.341845
v 0.893285 0.701867 0.000242
v 0.854762 0.733892 -0.353801
v 0.893285 -0.000000 -0.000000
v 0.825288 0.701985 -0.341603
v 0.654207 0.733996 -0.653953
v 0.825288 0.000118 -0.341845
v 0.631648 0.702085 -0.631406
v 0.354054 0.734065 -0.854509
v 0.631648 0.000218 -0.631648
v 0.341845 0.702152 -0.825045
v 0.000000 0.734089 -0.924935
v 0.341845 0.000285 -0.825288
v -0.000000 0.702175 -0.893043
v -0.354054 0.734065 -0.854509
v -0.000000 0.000308 -0.893285
v -0.341845 0.702152 -0.825045
v -0.654207 0.733996 -0.653953
v -0.341845 0.000285 -0.825288
v -0.631648 0.702085 -0.631406
v -0.854762 0.733892 -0.353801
v -0.631648 0.000218 -0.631648
v -0.825288 0.701985 -0.341603
v -0.925188 0.733770 0.000253
v -0.825288 0.000118 -0.341845
v -0.893285 0.701867 0.000242
v -0.893285 0.000000 0.000000
v 0.631648 2.871055 0.632639
v 0.825288 2.871155 0.342837
v 0.341846 2.870988 0.826279
v 0.893285 2.871273 0.000991
v 0.825288 2.871391 -0.340854
v 0.631648 2.871491 -0.630657
v 0.341845 2.871558 -0.824296
v 0.000000 2.871582 -0.892294
v -0.341845 2.871558 -0.824296
v -0.631648 2.871491 -0.630657
v -0.825288 2.871391 -0.340854
v -0.893285 2.871273 0.000991
v -0.825288 2.871155 0.342837
v -0.631648 2.871055 0.632639
v -0.341845 2.870988 0.826279
v 0.000000 2.870965 0.894276
v -0.854762 2.137626 -0.353316
v -0.925188 2.137503 0.000738
v -0.893285 2.169406 0.000749
v -0.825288 2.169524 -0.341096
v -0.893285 2.871273 0.000991
v -0.654207 2.137729 -0.653469
v -0.825288 2.871391 -0.340854
v -0.631648 2.169625 -0.630899
v -0.354054 2.137799 -0.854024
v -0.631648 2.871491 -0.630657
v -0.341845 2.169691 -0.824539
v 0.000000 2.137823 -0.924450
v -0.341845 2.871558 -0.824296
v 0.000000 2.169715 -0.892536
v 0.354054 2.137799 -0.854024
v 0.000000 2.871582 -0.892294
v 0.341845 2.169691 -0.824539
v 0.654207 2.137729 -0.653469
v 0.341845 2.871558 -0.824296
v 0.631648 2.169625 -0.630899
v 0.854762 2.137626 -0.353316
v 0.631648 2.871491 -0.630657
v 0.825288 2.169524 -0.341096
v 0.925188 2.137503 0.000738
v 0.825288 2.871391 -0.340854
v 0.893285 2.169406 0.000749
v 0.854762 2.137381 0.354792
v 0.893285 2.871273 0.000991
v 0.825288 2.169288 0.342594
v 0.654207 2.137278 0.654945
v 0.825288 2.871155 0.342837
v 0.631648 2.169188 0.632397
v 0.354054 2.137208 0.855500
v 0.631648 2.871055 0.632639
v 0.341845 2.169122 0.826037
v 0.000000 2.137184 0.925926
v 0.341846 2.870988 0.826279
v 0.000000 2.169098 0.894034
v -0.354054 2.137208 0.855500
v 0.000000 2.870965 0.894276
v -0.341845 2.169122 0.826037
v -0.654207 2.137278 0.654945
v -0.341845 2.870988 0.826279
v -0.631648 2.169188 0.632397
v -0.854762 2.137381 0.354792
v -0.631648 2.871055 0.632639
v -0.825288 2.169288 0.342594
v -0.925188 2.137503 0.000738
v -0.825288 2.871155 0.342837
v -0.893285 2.169406 0.000749
v -0.893285 2.871273 0.000991
vn -0.7071 -0.7071 -0.0002
vn -0.9231 -0.3845 -0.0001
vn -0.6533 -0.7072 0.2704
vn -0.8528 -0.3846 0.3531
vn -0.9231 0.3845 0.0002
vn -0.5000 -0.7073 0.4998
vn -0.8528 0.3844 0.3534
vn -0.7071 0.7071 0.0003
vn -0.6533 0.7070 0.2708
vn -0.6527 -0.3847 0.6526
vn -0.2706 -0.7073 0.6530
vn -0.6527 0.3843 0.6529
vn -0.5000 0.7069 0.5002
vn -0.3533 -0.3848 0.8527
vn -0.0000 -0.7074 0.7069
vn -0.3533 0.3842 0.8530
vn -0.2706 0.7069 0.6535
vn -0.0000 -0.3848 0.9230
vn 0.2706 -0.7073 0.6530
vn -0.0000 0.3842 0.9232
vn -0.0000 0.7069 0.7074
vn 0.3533 -0.3848 0.8527
vn 0.5000 -0.7073 0.4998
vn 0.3533 0.3842 0.8530
vn 0.2706 0.7069 0.6535
vn 0.6527 -0.3847 0.6526
vn 0.6533 -0.7072 0.2703
vn 0.6527 0.3843 0.6529
vn 0.5000 0.7069 0.5002
vn 0.8528 -0.3846 0.3531
vn 0.7071 -0.7071 -0.0002
vn 0.8528 0.3844 0.3534
vn 0.6533 0.7070 0.2708
vn 0.9231 -0.3845 -0.0001
vn 0.6533 -0.7070 -0.2708
vn 0.9231 0.3845 0.0001
vn 0.7071 0.7071 0.0002
vn 0.8528 -0.3844 -0.3534
vn 0.5000 -0.7069 -0.5002
vn 0.8528 0.3846 -0.3531
vn 0.6533 0.7072 -0.2703
vn 0.6527 -0.3843 -0.6529
vn 0.2706 -0.7069 -0.6535
vn 0.6527 0.3847 -0.6526
vn 0.5000 0.7073 -0.4998
vn 0.3533 -0.3842 -0.8530
vn -0.0000 -0.7069 -0.7074
vn 0.3533 0.3848 -0.8527
vn 0.2706 0.7073 -0.6530
vn -0.0000 -0.3842 -0.9232
vn -0.2706 -0.7069 -0.6535
vn -0.0000 0.3848 -0.9230
vn -0.0000 0.7074 -0.7069
vn -0.3533 -0.3842 -0.8530
vn -0.5000 -0.7069 -0.5002
vn -0.3533 0.3848 -0.8527
vn -0.2706 0.7073 -0.6530
vn -0.6527 -0.3843 -0.6529
vn -0.6533 -0.7070 -0.2708
vn -0.6527 0.3847 -0.6526
vn -0.5000 0.7073 -0.4998
vn -0.8528 -0.3844 -0.3534
vn -0.7071 -0.7071 -0.0003
vn -0.9231 -0.3845 -0.0002
vn -0.8528 0.3846 -0.3531
vn -0.6533 0.7072 -0.2704
vn -0.9231 0.3845 0.0001
vn -0.7071 0.7071 0.0002
vn -0.0000 -1.0000 -0.0003
vn -1.0000 -0.0000 -0.0000
vn -0.9239 -0.0001 0.3827
vn -0.7071 -0.0002 0.7071
vn -0.3827 -0.0003 0.9239
vn -0.0000 -0.0003 1.0000
vn 0.3827 -0.0003 0.9239
vn 0.7071 -0.0002 0.7071
vn 0.9239 -0.0001 0.3827
vn 1.0000 -0.0000 -0.0000
vn 0.9239 0.0001 -0.3827
vn 0.7071 0.0002 -0.7071
vn 0.3827 0.0003 -0.9239
vn -0.0000 0.0003 -1.0000
vn -0.3827 0.0003 -0.9239
vn -0.7071 0.0002 -0.7071
vn -0.9239 0.0001 -0.3827
vn -0.0000 1.0000 0.0003
vt 0.001912 0.159972
vt 0.001912 0.166780
vt 0.063796 0.159906
vt 0.063798 0.166716
vt 0.001912 0.457949
vt 0.125710 0.159718
vt 0.064194 0.457885
vt 0.001912 0.464817
vt 0.064197 0.464751
vt 0.125714 0.166535
vt 0.187679 0.159438
vt 0.126446 0.457704
vt 0.126450 0.464563
vt 0.187685 0.166264
vt 0.249721 0.159107
vt 0.188641 0.457433
vt 0.188646 0.464283
vt 0.249727 0.165945
vt 0.311843 0.158775
vt 0.250762 0.457114
vt 0.250768 0.463952
vt 0.311849 0.165625
vt 0.374039 0.158495
vt 0.312805 0.456794
vt 0.312810 0.463621
vt 0.374043 0.165354
vt 0.436292 0.158307
vt 0.374775 0.456523
vt 0.374779 0.463340
vt 0.436295 0.165173
vt 0.498577 0.158241
vt 0.436691 0.456342
vt 0.436693 0.463152
vt 0.498577 0.165109
vt 0.560862 0.158307
vt 0.498577 0.456278
vt 0.498577 0.463086
vt 0.560859 0.165173
vt 0.623115 0.158495
vt 0.560463 0.456342
vt 0.560461 0.463152
vt 0.623111 0.165354
vt 0.685311 0.158775
vt 0.622379 0.456523
vt 0.622375 0.463340
vt 0.685305 0.165625
vt 0.747433 0.159107
vt 0.684350 0.456794
vt 0.684344 0.463621
vt 0.747427 0.165945
vt 0.809475 0.159438
vt 0.746392 0.457114
vt 0.746386 0.463952
vt 0.809470 0.166264
vt 0.871444 0.159718
vt 0.808513 0.457433
vt 0.808508 0.464283
vt 0.871440 0.166535
vt 0.933358 0.159906
vt 0.870708 0.457704
vt 0.870704 0.464563
vt 0.933356 0.166716
vt 0.995242 0.159972
vt 0.995242 0.166780
vt 0.932960 0.457885
vt 0.932957 0.464751
vt 0.995242 0.457949
vt 0.995242 0.464817
vt 0.639513 0.884950
vt 0.680234 0.945893
vt 0.625213 0.813062
vt 0.741177 0.986614
vt 0.813065 1.000913
vt 0.884952 0.986614
vt 0.945896 0.945893
vt 0.986617 0.884950
vt 1.000916 0.813062
vt 0.986617 0.741174
vt 0.945896 0.680231
vt 0.884952 0.639510
vt 0.813065 0.625210
vt 0.741177 0.639510
vt 0.680234 0.680231
vt 0.639513 0.741174
vt 0.001912 0.471625
vt 0.064213 0.471561
vt 0.001912 0.619410
vt 0.064423 0.619346
vt 0.126481 0.471380
vt 0.126867 0.619165
vt 0.188686 0.471109
vt 0.189189 0.618894
vt 0.250811 0.470790
vt 0.251353 0.618575
vt 0.312850 0.470470
vt 0.313349 0.618255
vt 0.374810 0.470199
vt 0.375190 0.617984
vt 0.436710 0.470018
vt 0.436915 0.617803
vt 0.498577 0.469954
vt 0.498577 0.617739
vt 0.560445 0.470018
vt 0.560239 0.617803
vt 0.622344 0.470199
vt 0.621964 0.617984
vt 0.684304 0.470470
vt 0.683805 0.618255
vt 0.746343 0.470790
vt 0.745801 0.618575
vt 0.808468 0.471109
vt 0.807965 0.618894
vt 0.870673 0.471380
vt 0.870287 0.619165
vt 0.932941 0.471561
vt 0.932731 0.619346
vt 0.995242 0.471625
vt 0.995242 0.619410
vt 0.305827 0.943866
vt 0.366140 0.984166
vt 0.265527 0.883553
vt 0.437285 0.998318
vt 0.508429 0.984166
vt 0.568742 0.943866
vt 0.609042 0.883553
vt 0.623194 0.812409
vt 0.609042 0.741264
vt 0.568742 0.680951
vt 0.508429 0.640651
vt 0.437285 0.626499
vt 0.366140 0.640651
vt 0.305827 0.680951
vt 0.265527 0.741264
vt 0.251375 0.812409
vt 0.995242 0.153104
vt 0.933374 0.153040
vt 0.995242 0.000019
vt 0.933580 -0.000045
vt 0.871475 0.152859
vt 0.871855 -0.000226
vt 0.809515 0.152588
vt 0.810014 -0.000497
vt 0.747476 0.152269
vt 0.748018 -0.000816
vt 0.685351 0.151949
vt 0.685854 -0.001136
vt 0.623146 0.151678
vt 0.623532 -0.001407
vt 0.560878 0.151497
vt 0.561088 -0.001588
vt 0.498577 0.151433
vt 0.498577 -0.001652
vt 0.436276 0.151497
vt 0.436066 -0.001588
vt 0.374008 0.151678
vt 0.373622 -0.001407
vt 0.311803 0.151949
vt 0.311300 -0.001136
vt 0.249678 0.152269
vt 0.249136 -0.000816
vt 0.187639 0.152588
vt 0.187141 -0.000497
vt 0.125679 0.152859
vt 0.125299 -0.000226
vt 0.063780 0.153040
vt 0.063574 -0.000045
vt 0.001912 0.153104
vt 0.001912 0.000019
s 1
usemtl AcidBarrel
f 1/1/1 2/2/2 3/3/3
f 2/2/2 4/4/4 3/3/3
f 4/4/4 2/2/2 5/5/5
f 3/3/3 4/4/4 6/6/6
f 7/7/7 4/4/4 5/5/5
f 5/5/5 8/8/8 7/7/7
f 8/8/8 9/9/9 7/7/7
f 4/4/4 10/10/10 6/6/6
f 10/10/10 4/4/4 7/7/7
f 6/6/6 10/10/10 11/11/11
f 7/7/7 9/9/9 12/12/12
f 12/12/12 10/10/10 7/7/7
f 9/9/9 13/13/13 12/12/12
f 10/10/10 14/14/14 11/11/11
f 14/14/14 10/10/10 12/12/12
f 11/11/11 14/14/14 15/15/15
f 12/12/12 13/13/13 16/16/16
f 16/16/16 14/14/14 12/12/12
f 13/13/13 17/17/17 16/16/16
f 14/14/14 18/18/18 15/15/15
f 18/18/18 14/14/14 16/16/16
f 15/15/15 18/18/18 19/19/19
f 16/16/16 17/17/17 20/20/20
f 20/20/20 18/18/18 16/16/16
f 17/17/17 21/21/21 20/20/20
f 18/18/18 22/22/22 19/19/19
f 22/22/22 18/18/18 20/20/20
f 19/19/19 22/22/22 23/23/23
f 20/20/20 21/21/21 24/24/24
f 24/24/24 22/22/22 20/20/20
f 21/21/21 25/25/25 24/24/24
f 22/22/22 26/26/26 23/23/23
f 26/26/26 22/22/22 24/24/24
f 23/23/23 26/26/26 27/27/27
f 24/24/24 25/25/25 28/28/28
f 28/28/28 26/26/26 24/24/24
f 25/25/25 29/29/29 28/28/28
f 26/26/26 30/30/30 27/27/27
f 30/30/30 26/26/26 28/28/28
f 27/27/27 30/30/30 31/31/31
f 28/28/28 29/29/29 32/32/32
f 32/32/32 30/30/30 28/28/28
f 29/29/29 33/33/33 32/32/32
f 30/30/30 34/34/34 31/31/31
f 34/34/34 30/30/30 32/32/32
f 31/31/31 34/34/34 35/35/35
f 32/32/32 33/33/33 36/36/36
f 36/36/36 34/34/34 32/32/32
f 33/33/33 37/37/37 36/36/36
f 34/34/34 38/38/38 35/35/35
f 38/38/38 34/34/34 36/36/36
f 35/35/35 38/38/38 39/39/39
f 36/36/36 37/37/37 40/40/40
f 40/40/40 38/38/38 36/36/36
f 37/37/37 41/41/41 40/40/40
f 38/38/38 42/42/42 39/39/39
f 42/42/42 38/38/38 40/40/40
f 39/39/39 42/42/42 43/43/43
f 40/40/40 41/41/41 44/44/44
f 44/44/44 42/42/42 40/40/40
f 41/41/41 45/45/45 44/44/44
f 42/42/42 46/46/46 43/43/43
f 46/46/46 42/42/42 44/44/44
f 43/43/43 46/46/46 47/47/47
f 44/44/44 45/45/45 48/48/48
f 48/48/48 46/46/46 44/44/44
f 45/45/45 49/49/49 48/48/48
f 46/46/46 50/50/50 47/47/47
f 50/50/50 46/46/46 48/48/48
f 47/47/47 50/50/50 51/51/51
f 48/48/48 49/49/49 52/52/52
f 52/52/52 50/50/50 48/48/48
f 49/49/49 53/53/53 52/52/52
f 50/50/50 54/54/54 51/51/51
f 54/54/54 50/50/50 52/52/52
f 51/51/51 54/54/54 55/55/55
f 52/52/52 53/53/53 56/56/56
f 56/56/56 54/54/54 52/52/52
f 53/53/53 57/57/57 56/56/56
f 54/54/54 58/58/58 55/55/55
f 58/58/58 54/54/54 56/56/56
f 55/55/55 58/58/58 59/59/59
f 56/56/56 57/57/57 60/60/60
f 60/60/60 58/58/58 56/56/56
f 57/57/57 61/61/61 60/60/60
f 58/58/58 62/62/62 59/59/59
f 62/62/62 58/58/58 60/60/60
f 59/59/59 62/62/62 63/63/63
f 62/62/62 64/64/64 63/63/63
f 60/60/60 61/61/61 65/65/65
f 65/65/65 62/62/62 60/60/60
f 64/64/64 62/62/62 65/65/65
f 61/61/61 66/66/66 65/65/65
f 67/67/67 64/64/64 65/65/65
f 65/65/65 66/66/66 67/67/67
f 66/66/66 68/68/68 67/67/67
s 0
f 69/69/69 70/70/69 71/71/69
f 70/70/69 72/72/69 71/71/69
f 72/72/69 73/73/69 71/71/69
f 73/73/69 74/74/69 71/71/69
f 74/74/69 75/75/69 71/71/69
f 75/75/69 76/76/69 71/71/69
f 76/76/69 77/77/69 71/71/69
f 77/77/69 78/78/69 71/71/69
f 78/78/69 79/79/69 71/71/69
f 79/79/69 80/80/69 71/71/69
f 80/80/69 81/81/69 71/71/69
f 81/81/69 82/82/69 71/71/69
f 82/82/69 83/83/69 71/71/69
f 83/83/69 84/84/69 71/71/69
s 1
f 85/8/1 86/85/2 87/9/3
f 86/85/2 88/86/4 87/9/3
f 88/86/4 86/85/2 89/87/70
f 87/9/3 88/86/4 90/13/6
f 91/88/71 88/86/4 89/87/70
f 88/86/4 92/89/10 90/13/6
f 92/89/10 88/86/4 91/88/71
f 90/13/6 92/89/10 93/17/11
f 94/90/72 92/89/10 91/88/71
f 92/89/10 95/91/14 93/17/11
f 95/91/14 92/89/10 94/90/72
f 93/17/11 95/91/14 96/21/15
f 97/92/73 95/91/14 94/90/72
f 95/91/14 98/93/18 96/21/15
f 98/93/18 95/91/14 97/92/73
f 96/21/15 98/93/18 99/25/19
f 100/94/74 98/93/18 97/92/73
f 98/93/18 101/95/22 99/25/19
f 101/95/22 98/93/18 100/94/74
f 99/25/19 101/95/22 102/29/23
f 103/96/75 101/95/22 100/94/74
f 101/95/22 104/97/26 102/29/23
f 104/97/26 101/95/22 103/96/75
f 102/29/23 104/97/26 105/33/27
f 106/98/76 104/97/26 103/96/75
f 104/97/26 107/99/30 105/33/27
f 107/99/30 104/97/26 106/98/76
f 105/33/27 107/99/30 108/37/31
f 109/100/77 107/99/30 106/98/76
f 107/99/30 110/101/34 108/37/31
f 110/101/34 107/99/30 109/100/77
f 108/37/31 110/101/34 111/41/35
f 112/102/78 110/101/34 109/100/77
f 110/101/34 113/103/38 111/41/35
f 113/103/38 110/101/34 112/102/78
f 111/41/35 113/103/38 114/45/39
f 115/104/79 113/103/38 112/102/78
f 113/103/38 116/105/42 114/45/39
f 116/105/42 113/103/38 115/104/79
f 114/45/39 116/105/42 117/49/43
f 118/106/80 116/105/42 115/104/79
f 116/105/42 119/107/46 117/49/43
f 119/107/46 116/105/42 118/106/80
f 117/49/43 119/107/46 120/53/47
f 121/108/81 119/107/46 118/106/80
f 119/107/46 122/109/50 120/53/47
f 122/109/50 119/107/46 121/108/81
f 120/53/47 122/109/50 123/57/51
f 124/110/82 122/109/50 121/108/81
f 122/109/50 125/111/54 123/57/51
f 125/111/54 122/109/50 124/110/82
f 123/57/51 125/111/54 126/61/55
f 127/112/83 125/111/54 124/110/82
f 125/111/54 128/113/58 126/61/55
f 128/113/58 125/111/54 127/112/83
f 126/61/55 128/113/58 129/66/59
f 130/114/84 128/113/58 127/112/83
f 128/113/58 131/115/62 129/66/59
f 131/115/62 128/113/58 130/114/84
f 129/66/59 131/115/62 132/68/63
f 133/116/85 131/115/62 130/114/84
f 131/115/62 134/117/64 132/68/63
f 134/117/64 131/115/62 133/116/85
f 135/118/70 134/117/64 133/116/85
s 0
f 136/119/86 137/120/86 138/121/86
f 137/120/86 139/122/86 138/121/86
f 139/122/86 140/123/86 138/121/86
f 140/123/86 141/124/86 138/121/86
f 141/124/86 142/125/86 138/121/86
f 142/125/86 143/126/86 138/121/86
f 143/126/86 144/127/86 138/121/86
f 144/127/86 145/128/86 138/121/86
f 145/128/86 146/129/86 138/121/86
f 146/129/86 147/130/86 138/121/86
f 147/130/86 148/131/86 138/121/86
f 148/131/86 149/132/86 138/121/86
f 149/132/86 150/133/86 138/121/86
f 150/133/86 151/134/86 138/121/86
s 1
f 152/59/66 153/63/68 154/135/67
f 155/136/65 152/59/66 154/135/67
f 154/135/67 156/137/70 155/136/65
f 157/55/61 152/59/66 155/136/65
f 156/137/70 158/138/85 155/136/65
f 159/139/60 157/55/61 155/136/65
f 155/136/65 158/138/85 159/139/60
f 160/51/57 157/55/61 159/139/60
f 158/138/85 161/140/84 159/139/60
f 162/141/56 160/51/57 159/139/60
f 159/139/60 161/140/84 162/141/56
f 163/47/53 160/51/57 162/141/56
f 161/140/84 164/142/83 162/141/56
f 165/143/52 163/47/53 162/141/56
f 162/141/56 164/142/83 165/143/52
f 166/43/49 163/47/53 165/143/52
f 164/142/83 167/144/82 165/143/52
f 168/145/48 166/43/49 165/143/52
f 165/143/52 167/144/82 168/145/48
f 169/39/45 166/43/49 168/145/48
f 167/144/82 170/146/81 168/145/48
f 171/147/44 169/39/45 168/145/48
f 168/145/48 170/146/81 171/147/44
f 172/35/41 169/39/45 171/147/44
f 170/146/81 173/148/80 171/147/44
f 174/149/40 172/35/41 171/147/44
f 171/147/44 173/148/80 174/149/40
f 175/31/37 172/35/41 174/149/40
f 173/148/80 176/150/79 174/149/40
f 177/151/36 175/31/37 174/149/40
f 174/149/40 176/150/79 177/151/36
f 178/27/33 175/31/37 177/151/36
f 176/150/79 179/152/78 177/151/36
f 180/153/32 178/27/33 177/151/36
f 177/151/36 179/152/78 180/153/32
f 181/23/29 178/27/33 180/153/32
f 179/152/78 182/154/77 180/153/32
f 183/155/28 181/23/29 180/153/32
f 180/153/32 182/154/77 183/155/28
f 184/19/25 181/23/29 183/155/28
f 182/154/77 185/156/76 183/155/28
f 186/157/24 184/19/25 183/155/28
f 183/155/28 185/156/76 186/157/24
f 187/15/21 184/19/25 186/157/24
f 185/156/76 188/158/75 186/157/24
f 189/159/20 187/15/21 186/157/24
f 186/157/24 188/158/75 189/159/20
f 190/11/17 187/15/21 189/159/20
f 188/158/75 191/160/74 189/159/20
f 192/161/16 190/11/17 189/159/20
f 189/159/20 191/160/74 192/161/16
f 193/6/13 190/11/17 192/161/16
f 191/160/74 194/162/73 192/161/16
f 195/163/12 193/6/13 192/161/16
f 192/161/16 194/162/73 195/163/12
f 196/3/9 193/6/13 195/163/12
f 194/162/73 197/164/72 195/163/12
f 198/165/7 196/3/9 195/163/12
f 195/163/12 197/164/72 198/165/7
f 199/1/8 196/3/9 198/165/7
f 197/164/72 200/166/71 198/165/7
f 201/167/5 199/1/8 198/165/7
f 198/165/7 200/166/71 201/167/5
f 200/166/71 202/168/70 201/167/5
